<?xml version="1.0" encoding="utf-8"?>
<!-- Generator: Adobe Illustrator 22.1.0, SVG Export Plug-In . SVG Version: 6.00 Build 0)  -->
<svg version="1.1" id="Capa_1" xmlns="http://www.w3.org/2000/svg" xmlns:xlink="http://www.w3.org/1999/xlink" x="0px" y="0px"
	 viewBox="0 0 512 515" style="enable-background:new 0 0 512 515;" xml:space="preserve">
<style type="text/css">
	.st0{fill:#FC313C;}
</style>
<path class="st0" d="M171.9,0c-19.6,0-38.1,14-52.1,39.2C107.2,62.1,100,91,100,118.9c0,28.5,14.8,54.4,38.5,67.7
	c8.2,4.5,13,13.1,12.6,22.1l-2,42.7c-0.2,4.1,3,7.7,7.2,7.9c4.2,0.2,7.7-3,7.9-7.2l2-42.7c0.7-14.9-7.1-28.7-20.3-36.1
	c-19-10.6-30.8-31.5-30.8-54.5c-0.1-25.2,6.5-51.6,17.9-72.1c11-20,25.2-31.6,38.9-31.6c13.7,0,27.9,11.5,39,31.5
	c11.4,20.6,17.9,47,17.9,72.3c0,23-11.8,43.9-30.8,54.5c-13.2,7.3-21,21.2-20.3,36.1l12.5,271.1c0.2,5.1-1.6,10-5.1,13.6
	c-3.5,3.7-8.2,5.7-13.3,5.7c-5.1,0-9.8-2-13.3-5.7c-3.5-3.7-5.3-8.5-5.1-13.6l9.2-198.1c0.2-4.1-3-7.7-7.2-7.9
	c-4.1-0.2-7.7,3-7.9,7.2l-9.2,198.1c-0.4,9.3,2.8,18,9.2,24.7c6.4,6.7,15.2,10.4,24.4,10.4c9.2,0,17.8-3.7,24.2-10.4
	c6.4-6.7,9.6-15.5,9.2-24.7l-12.6-271.1c-0.4-9.1,4.4-17.6,12.6-22.1c23.8-13.3,38.5-39.2,38.5-67.7c0-27.9-7.2-56.9-19.8-79.7
	C210,14,191.5,0,171.9,0L171.9,0z"/>
<path class="st0" d="M376.2,187c23-12.7,37-37.8,35.7-64.2l-5.4-104C405.9,8.2,397.3,0,386.8,0c-5.3,0-10.3,2.1-14.1,5.9
	c-3.7,3.8-5.7,9-5.6,14.3l2,90c0,1.4-0.7,2.3-1.1,2.7c-0.4,0.4-1.3,1.1-2.7,1.1c-2.1,0-3.7-1.7-3.8-3.7l-0.9-92.5
	c0-9.9-8-17.8-17.8-17.8C333,0,325,7.9,324.9,17.8l-0.9,92.5c0,2.1-1.7,3.7-3.8,3.7c-1.4,0-2.3-0.7-2.7-1.1s-1.1-1.3-1.1-2.7l2-90.5
	c0.1-5.2-1.8-10.2-5.5-13.9C309.5,2,304.6,0,299.4,0c-10.2,0-18.6,8-19.2,18.3l-5.4,104.4c-1.4,26.8,12.3,51.3,35.6,64.3
	c7.7,4.2,12.5,13,12,22L315,369.4c-0.2,4.1,3,7.7,7.2,7.9c4.2,0.2,7.7-3,7.9-7.2l7.4-160.3c0.7-14.9-7.1-29-19.8-36
	c-18.3-10.1-28.9-29.3-27.9-50.2l5.4-104.4c0.1-2.2,1.9-3.9,4.1-3.9c1.5,0,2.5,0.8,3,1.2c0.5,0.5,1.2,1.5,1.2,3l-2,90.5
	c-0.1,5.1,1.8,10,5.4,13.7c3.6,3.6,8.3,5.7,13.4,5.7c10.3,0,18.7-8.3,18.8-18.7l0.9-92.5c0-1.5,1.3-2.8,2.8-2.8s2.8,1.3,2.8,2.8
	l0.9,92.5c0.1,10.4,8.5,18.7,18.8,18.7c5.1,0,9.9-2,13.4-5.7c3.6-3.6,5.5-8.5,5.4-13.7l-2-90c0-1.3,0.4-2.4,1.3-3.3s2.1-1.4,3.3-1.4
	c2.5,0,4.5,1.9,4.6,4.4l5.4,104c1.1,20.9-9.6,40.1-27.9,50.1c-12.7,7-20.5,21.1-19.8,36l12.5,270.9c0.2,5.1-1.6,10.1-5.2,13.7
	c-3.6,3.7-8.3,5.7-13.5,5.6c-4.9-0.1-9.4-2.1-12.8-5.8c-3.5-3.8-5.4-9-5.2-14.1l3.7-79.6c0.2-4.1-3-7.7-7.2-7.9
	c-4.2-0.2-7.7,3-7.9,7.2l-3.7,79.6c-0.4,9.3,2.9,18.4,9.2,25.1c6.2,6.6,14.5,10.4,23.5,10.6c0.2,0,0.4,0,0.6,0c9,0,17.7-3.7,24-10.2
	c6.4-6.6,9.8-15.7,9.4-24.9L363.9,209C363.8,199.9,368.5,191.2,376.2,187L376.2,187z"/>
</svg>
