<?xml version="1.0" encoding="utf-8"?>
<!-- Generator: Adobe Illustrator 22.1.0, SVG Export Plug-In . SVG Version: 6.00 Build 0)  -->
<svg version="1.1" id="Capa_1" xmlns="http://www.w3.org/2000/svg" xmlns:xlink="http://www.w3.org/1999/xlink" x="0px" y="0px"
	 viewBox="0 0 488 405.8" style="enable-background:new 0 0 488 405.8;" xml:space="preserve">
<style type="text/css">
	.st0{fill:#FC313C;}
</style>
<path class="st0" d="M246.9,111.8V90.9h1.1c4.4,0,7.9-4.1,7.9-8.5V7.9c0-2.1-0.8-4.1-2.3-5.6C252.2,0.8,250.1,0,248,0H44.7
	c-2.1,0-4.1,0.8-5.5,2.3c-1.4,1.5-2.2,3.5-2.1,5.6v74.6c0,4.4,3.2,8.5,7.6,8.5h1.4v20.8c0,0.1-0.3,0.1-0.4,0.2
	c-0.4,0.2-0.8,0.4-1.2,0.6c-0.5,0.3-1,0.5-1.5,0.8c-0.4,0.2-0.8,0.4-1.2,0.7c-0.5,0.3-0.9,0.5-1.4,0.8c-0.4,0.2-0.8,0.5-1.2,0.7
	c-0.5,0.3-0.9,0.6-1.4,0.8c-0.4,0.2-0.8,0.5-1.1,0.8c-0.4,0.3-0.9,0.6-1.3,0.9c-0.4,0.3-0.8,0.5-1.1,0.8c-0.4,0.3-0.8,0.6-1.3,0.9
	c-0.4,0.3-0.7,0.6-1.1,0.8c-0.4,0.3-0.8,0.6-1.2,1c-0.4,0.3-0.7,0.6-1.1,0.9c-0.4,0.3-0.8,0.7-1.2,1c-0.3,0.3-0.7,0.6-1,0.9
	c-0.4,0.3-0.8,0.7-1.1,1.1c-0.3,0.3-0.7,0.6-1,1c-0.4,0.4-0.7,0.7-1.1,1.1c-0.3,0.3-0.6,0.6-1,1c-0.4,0.4-0.7,0.8-1.1,1.2
	c-0.3,0.3-0.6,0.7-0.9,1c-0.4,0.4-0.7,0.8-1.1,1.2c-0.3,0.3-0.6,0.7-0.9,1c-0.4,0.4-0.7,0.9-1.1,1.3c-0.3,0.3-0.5,0.6-0.8,1
	c-0.4,0.6-0.9,1.1-1.3,1.7c-0.2,0.3-0.5,0.7-0.7,1c-0.5,0.7-0.9,1.3-1.4,2c-0.2,0.3-0.4,0.7-0.6,1c-0.3,0.5-0.6,1-1,1.5
	c-0.2,0.4-0.4,0.7-0.7,1.1c-0.3,0.5-0.6,0.9-0.8,1.4c-0.2,0.4-0.4,0.8-0.7,1.2c-0.3,0.5-0.5,0.9-0.8,1.4c-0.2,0.4-0.4,0.8-0.6,1.2
	c-0.2,0.5-0.5,0.9-0.7,1.4c-0.2,0.4-0.4,0.8-0.6,1.3c-0.2,0.5-0.4,1-0.6,1.4c-0.2,0.4-0.4,0.8-0.5,1.3c-0.2,0.5-0.4,1-0.6,1.5
	c-0.2,0.4-0.3,0.9-0.5,1.3c-0.2,0.5-0.4,1-0.5,1.5c-0.2,0.4-0.3,0.9-0.5,1.3c-0.2,0.5-0.3,1-0.5,1.5c-0.1,0.4-0.3,0.9-0.4,1.3
	c-0.2,0.5-0.3,1-0.4,1.5c-0.1,0.4-0.2,0.9-0.4,1.3c-0.1,0.5-0.3,1-0.4,1.6c-0.1,0.4-0.2,0.9-0.3,1.3c-0.1,0.5-0.2,1.1-0.3,1.6
	c-0.1,0.4-0.2,0.9-0.3,1.3c-0.1,0.5-0.2,1.1-0.3,1.6c-0.1,0.4-0.1,0.9-0.2,1.3c-0.1,0.6-0.2,1.1-0.2,1.7c-0.1,0.4-0.1,0.9-0.2,1.3
	c-0.1,0.6-0.1,1.2-0.2,1.8c0,0.4-0.1,0.8-0.1,1.2c-0.1,0.7-0.1,1.3-0.1,2c0,0.3,0.1,0.7,0.1,1c0,1,0,2,0,3v174.8
	c0,24.8,20.1,44.9,44.8,45h202.9c24.8,0,45-20.1,45.1-45V186c0-16.4-4.8-32.5-13.8-46.2C271.1,127.7,260,118,246.9,111.8z M53.1,16
	h186.9v59H53.1V16z M276.9,360.8c-0.1,16-13.1,29-29.1,29H45c-16,0-28.9-13-28.9-29V186c0-14.1,4.4-27.8,12.6-39.3
	c0.9-1.3,1.9-2.6,2.9-3.8c0.5-0.6,1-1.5,1.6-2.1c6.6-7.3,14.7-13.1,23.7-16.9H57c3-0.9,5.1-3.8,5.1-6.9v-26H231v26
	c0,3.3,2,6.2,5,7.4c24.5,9.7,40.9,34.4,40.9,61.6V360.8z"/>
<path class="st0" d="M228,223.9h-49v-49c0-4.4-3.6-8-8-8h-49c-4.4,0-8,3.6-8,8v49h-48c-4.4,0-8,3.6-8,8v46c0,4.4,3.6,8,8,8h48v49
	c0,4.4,3.6,8,8,8h49c4.4,0,8-3.6,8-8v-49h49c4.4,0,8-3.6,8-8v-46C236,227.4,232.4,223.9,228,223.9z M220,269.8h-49c-4.4,0-8,3.6-8,8
	v49h-33v-49c0-4.4-3.6-8-8-8H74v-30h48c4.4,0,8-3.6,8-8v-49h33v49c0,4.4,3.6,8,8,8h49V269.8z"/>
<path class="st0" d="M460.1,276l-93.9-34.4c-21.9-8-46.2,3.1-54.4,24.9c-8.2,21.8,2.7,46.2,24.4,54.6c-22.4,2.5-38.9,22.1-37.6,44.6
	c1.3,22.5,19.9,40.1,42.4,40.1h100c15,0,28.9-7.9,36.6-20.8c7.7-12.9,7.9-28.9,0.7-42.1c8.8-10.6,11.8-24.9,8.2-38.1
	C482.9,291.4,473.1,280.7,460.1,276z M470.4,325c-0.7,1.8-1.6,3.6-2.6,5.3c-7.6-6.1-17-9.5-26.7-9.5h-42.1l16.2-44.3l39.4,14.5
	C468.4,296,475.4,311.3,470.4,325z M327.5,292.6c-4.5-9.7-2.7-21.2,4.6-29.1c7.3-7.9,18.6-10.6,28.6-6.9l39.4,14.5l-14,38.2
	c1.5-4.1-0.6-8.7-4.8-10.2l-31.9-11.7c-2.7-1-5.7-0.5-7.9,1.3c-2.2,1.8-3.3,4.7-2.8,7.5c0.5,2.8,2.5,5.2,5.2,6.1l31.9,11.7
	c2,0.7,4.2,0.6,6.1-0.2c1.9-0.9,3.4-2.5,4.1-4.5l-4.2,11.5h0l-39.4-14.4C335.9,304,330.5,299,327.5,292.6z M314.5,363.3
	c0-14.6,11.9-26.5,26.5-26.5h41.8v40.7c0-2.1-0.8-4.1-2.3-5.5c-1.5-1.5-3.5-2.3-5.5-2.2h-34c-4.4,0-8,3.6-8,8s3.6,8,8,8h34
	c4.4-0.1,7.9-3.8,7.8-8.2v12.2h-41.8C326.4,389.8,314.6,377.9,314.5,363.3z M441.1,389.8h-42.2v-53h42.2c14.6,0,26.5,11.9,26.5,26.5
	C467.5,377.9,455.7,389.8,441.1,389.8z"/>
</svg>
