<?xml version="1.0" encoding="utf-8"?>
<!-- Generator: Adobe Illustrator 22.1.0, SVG Export Plug-In . SVG Version: 6.00 Build 0)  -->
<svg version="1.1" id="Capa_1" xmlns="http://www.w3.org/2000/svg" xmlns:xlink="http://www.w3.org/1999/xlink" x="0px" y="0px"
	 viewBox="0 0 101.4 37.1" style="enable-background:new 0 0 101.4 37.1;" xml:space="preserve">
<g>
	<path d="M42.1,5.3c0,1.4-0.5,2.9-1.4,4.4c-1.3,2-3.1,3.6-5.6,4.8c-2.2,1-4.7,1.6-7.2,1.6h-3.8l4.1-11.7h4.1l-3.5,9.9
		c1.5,0,3-0.5,4.5-1.4c1.5-0.9,2.5-2.1,3.2-3.4c0.6-1.2,0.9-2.2,0.9-3c0-1.3-0.4-2.2-1.1-2.8c-0.7-0.5-1.7-0.8-3-0.8h-11L24,0h11
		c1.9,0,3.5,0.4,4.8,1.2C41.3,2.2,42.1,3.5,42.1,5.3z"/>
	<path d="M46.3,16h-2.6V6.4h2.4v1.4c0.4-0.7,0.8-1.1,1.1-1.3c0.3-0.2,0.7-0.3,1.1-0.3c0.6,0,1.1,0.2,1.7,0.5l-0.8,2.2
		c-0.4-0.3-0.8-0.4-1.2-0.4c-0.4,0-0.7,0.1-0.9,0.3c-0.2,0.2-0.4,0.6-0.6,1.1c-0.1,0.5-0.2,1.6-0.2,3.2V16z"/>
	<path d="M53,9.3l-2.3-0.4C50.9,8,51.4,7.3,52,6.8c0.6-0.4,1.6-0.7,2.8-0.7c1.1,0,2,0.1,2.6,0.4c0.6,0.3,1,0.6,1.2,1
		s0.3,1.2,0.3,2.3l0,3c0,0.9,0,1.5,0.1,1.9c0.1,0.4,0.2,0.8,0.5,1.3H57c-0.1-0.2-0.1-0.4-0.2-0.8c0-0.2-0.1-0.3-0.1-0.3
		c-0.4,0.4-0.9,0.7-1.4,1c-0.5,0.2-1,0.3-1.6,0.3c-1,0-1.8-0.3-2.4-0.8c-0.6-0.5-0.9-1.2-0.9-2.1c0-0.5,0.1-1,0.4-1.5
		c0.3-0.4,0.6-0.8,1.1-1c0.5-0.2,1.2-0.4,2-0.6c1.2-0.2,2-0.4,2.5-0.6V9.5c0-0.5-0.1-0.8-0.4-1.1c-0.2-0.2-0.7-0.3-1.4-0.3
		c-0.5,0-0.8,0.1-1.1,0.3S53.1,8.9,53,9.3z M56.4,11.4c-0.3,0.1-0.8,0.2-1.6,0.4c-0.7,0.2-1.2,0.3-1.4,0.4c-0.3,0.2-0.5,0.5-0.5,0.9
		c0,0.4,0.1,0.7,0.4,0.9c0.3,0.3,0.6,0.4,1,0.4c0.5,0,0.9-0.2,1.3-0.5c0.3-0.2,0.5-0.5,0.6-0.8c0.1-0.2,0.1-0.6,0.1-1.2V11.4z"/>
	<path d="M60.6,13.3l2.6-0.4c0.1,0.5,0.3,0.9,0.7,1.1c0.3,0.3,0.8,0.4,1.4,0.4c0.7,0,1.2-0.1,1.5-0.4c0.2-0.2,0.3-0.4,0.3-0.7
		c0-0.2-0.1-0.4-0.2-0.5c-0.1-0.1-0.4-0.2-0.9-0.3c-2.1-0.5-3.4-0.9-3.9-1.2c-0.8-0.5-1.1-1.2-1.1-2.2c0-0.8,0.3-1.5,1-2.1
		s1.7-0.9,3.1-0.9c1.3,0,2.3,0.2,3,0.6c0.6,0.4,1.1,1.1,1.3,1.9l-2.4,0.4c-0.1-0.4-0.3-0.7-0.6-0.9C66,8.1,65.6,8,65,8
		c-0.7,0-1.2,0.1-1.5,0.3c-0.2,0.1-0.3,0.3-0.3,0.5c0,0.2,0.1,0.3,0.3,0.5c0.2,0.2,1,0.4,2.4,0.7c1.4,0.3,2.3,0.7,2.9,1.1
		c0.5,0.5,0.8,1.1,0.8,1.9c0,0.9-0.4,1.7-1.1,2.3c-0.7,0.6-1.8,1-3.3,1c-1.3,0-2.4-0.3-3.1-0.8C61.3,14.9,60.8,14.2,60.6,13.3z"/>
	<path d="M70.9,13.3l2.6-0.4c0.1,0.5,0.3,0.9,0.7,1.1c0.3,0.3,0.8,0.4,1.4,0.4c0.7,0,1.2-0.1,1.5-0.4c0.2-0.2,0.3-0.4,0.3-0.7
		c0-0.2-0.1-0.4-0.2-0.5c-0.1-0.1-0.4-0.2-0.9-0.3c-2.1-0.5-3.4-0.9-3.9-1.2c-0.8-0.5-1.1-1.2-1.1-2.2c0-0.8,0.3-1.5,1-2.1
		C73,6.4,74,6.1,75.4,6.1c1.3,0,2.3,0.2,3,0.6c0.6,0.4,1.1,1.1,1.3,1.9l-2.4,0.4c-0.1-0.4-0.3-0.7-0.6-0.9C76.4,8.1,76,8,75.4,8
		c-0.7,0-1.2,0.1-1.5,0.3c-0.2,0.1-0.3,0.3-0.3,0.5c0,0.2,0.1,0.3,0.3,0.5c0.2,0.2,1,0.4,2.4,0.7c1.4,0.3,2.3,0.7,2.9,1.1
		c0.5,0.5,0.8,1.1,0.8,1.9c0,0.9-0.4,1.7-1.1,2.3c-0.7,0.6-1.8,1-3.3,1c-1.3,0-2.4-0.3-3.1-0.8C71.7,14.9,71.2,14.2,70.9,13.3z"/>
	<path d="M87.8,13l2.6,0.4c-0.3,0.9-0.8,1.6-1.6,2.1c-0.7,0.5-1.6,0.7-2.7,0.7c-1.7,0-2.9-0.6-3.7-1.7c-0.6-0.9-1-2-1-3.3
		c0-1.6,0.4-2.9,1.3-3.8c0.8-0.9,1.9-1.4,3.2-1.4c1.4,0,2.6,0.5,3.4,1.4c0.8,1,1.2,2.4,1.2,4.4h-6.4c0,0.8,0.2,1.4,0.6,1.8
		c0.4,0.4,0.9,0.6,1.5,0.6c0.4,0,0.7-0.1,1-0.3S87.7,13.4,87.8,13z M88,10.4c0-0.7-0.2-1.3-0.6-1.7c-0.4-0.4-0.8-0.6-1.3-0.6
		c-0.6,0-1,0.2-1.4,0.6c-0.4,0.4-0.5,1-0.5,1.7H88z"/>
	<path d="M101.4,16h-2.6v-4.9c0-1-0.1-1.7-0.2-2c-0.1-0.3-0.3-0.5-0.5-0.7s-0.5-0.3-0.9-0.3c-0.4,0-0.8,0.1-1.2,0.4
		c-0.4,0.2-0.6,0.6-0.7,1c-0.1,0.4-0.2,1.1-0.2,2.2V16h-2.6V6.4H95v1.4c0.8-1.1,1.9-1.6,3.2-1.6c0.6,0,1.1,0.1,1.6,0.3
		c0.5,0.2,0.8,0.5,1.1,0.8c0.2,0.3,0.4,0.7,0.5,1.1c0.1,0.4,0.1,1,0.1,1.7V16z"/>
	<path d="M19.4,20.9c0,2.2-1.6,4.2-4.7,5.8c-2.1,1.1-4.5,1.9-7.4,2.5l-1.4,4H1.8l4.2-11.7H10l-2,5.5c1.5-0.3,2.8-0.9,3.9-1.6
		c1.6-1,2.4-2.2,2.5-3.5c0-0.9-0.2-1.4-0.9-1.7c-0.4-0.2-1-0.2-2-0.2H0l1.8-2.9h11.7c1.7,0,3,0.2,3.9,0.6
		C18.7,18.4,19.4,19.4,19.4,20.9z"/>
	<path d="M20.8,26.4L18.4,26c0.3-0.9,0.7-1.6,1.3-2.1s1.6-0.7,2.8-0.7c1.1,0,2,0.1,2.6,0.4c0.6,0.3,1,0.6,1.2,1s0.3,1.2,0.3,2.3l0,3
		c0,0.9,0,1.5,0.1,1.9c0.1,0.4,0.2,0.8,0.5,1.3h-2.5c-0.1-0.2-0.1-0.4-0.2-0.8c0-0.2-0.1-0.3-0.1-0.3c-0.4,0.4-0.9,0.7-1.4,1
		c-0.5,0.2-1,0.3-1.6,0.3c-1,0-1.8-0.3-2.4-0.8c-0.6-0.5-0.9-1.2-0.9-2.1c0-0.5,0.1-1,0.4-1.5s0.6-0.8,1.1-1c0.5-0.2,1.2-0.4,2-0.6
		c1.2-0.2,2-0.4,2.5-0.6v-0.3c0-0.5-0.1-0.8-0.4-1.1c-0.2-0.2-0.7-0.3-1.4-0.3c-0.5,0-0.8,0.1-1.1,0.3C21.1,25.7,20.9,26,20.8,26.4z
		 M24.2,28.5c-0.3,0.1-0.8,0.2-1.6,0.4c-0.7,0.2-1.2,0.3-1.4,0.4c-0.3,0.2-0.5,0.5-0.5,0.9c0,0.4,0.1,0.7,0.4,0.9
		c0.3,0.3,0.6,0.4,1,0.4c0.5,0,0.9-0.2,1.3-0.5c0.3-0.2,0.5-0.5,0.6-0.8c0.1-0.2,0.1-0.6,0.1-1.2V28.5z"/>
	<path d="M37.7,26.3l-2.5,0.5c-0.1-0.5-0.3-0.9-0.6-1.1s-0.7-0.4-1.2-0.4c-0.6,0-1.1,0.2-1.5,0.7s-0.6,1.2-0.6,2.2
		c0,1.1,0.2,2,0.6,2.4s0.9,0.7,1.6,0.7c0.5,0,0.9-0.1,1.2-0.4c0.3-0.3,0.5-0.8,0.7-1.4l2.5,0.4c-0.3,1.2-0.8,2-1.5,2.6
		c-0.7,0.6-1.7,0.9-3,0.9c-1.4,0-2.5-0.4-3.4-1.3c-0.8-0.9-1.3-2.1-1.3-3.7c0-1.6,0.4-2.8,1.3-3.7c0.8-0.9,2-1.3,3.4-1.3
		c1.2,0,2.1,0.3,2.8,0.8S37.4,25.3,37.7,26.3z"/>
	<path d="M39.5,33.2V19.8h2.6v7.1l3-3.4h3.2L44.9,27l3.5,6.1h-2.8l-2.4-4.4l-1.2,1.2v3.1H39.5z"/>
	<path d="M51.9,26.4L49.6,26c0.3-0.9,0.7-1.6,1.3-2.1c0.6-0.4,1.6-0.7,2.8-0.7c1.1,0,2,0.1,2.6,0.4c0.6,0.3,1,0.6,1.2,1
		c0.2,0.4,0.3,1.2,0.3,2.3l0,3c0,0.9,0,1.5,0.1,1.9c0.1,0.4,0.2,0.8,0.5,1.3h-2.5c-0.1-0.2-0.1-0.4-0.2-0.8c0-0.2-0.1-0.3-0.1-0.3
		c-0.4,0.4-0.9,0.7-1.4,1c-0.5,0.2-1,0.3-1.6,0.3c-1,0-1.8-0.3-2.4-0.8c-0.6-0.5-0.9-1.2-0.9-2.1c0-0.5,0.1-1,0.4-1.5s0.6-0.8,1.1-1
		c0.5-0.2,1.2-0.4,2-0.6c1.2-0.2,2-0.4,2.5-0.6v-0.3c0-0.5-0.1-0.8-0.4-1.1c-0.2-0.2-0.7-0.3-1.4-0.3c-0.5,0-0.8,0.1-1.1,0.3
		C52.3,25.7,52.1,26,51.9,26.4z M55.4,28.5c-0.3,0.1-0.8,0.2-1.6,0.4c-0.7,0.2-1.2,0.3-1.4,0.4c-0.3,0.2-0.5,0.5-0.5,0.9
		c0,0.4,0.1,0.7,0.4,0.9c0.3,0.3,0.6,0.4,1,0.4c0.5,0,0.9-0.2,1.3-0.5c0.3-0.2,0.5-0.5,0.6-0.8c0.1-0.2,0.1-0.6,0.1-1.2V28.5z"/>
	<path d="M60.2,33.8l2.9,0.4c0,0.3,0.2,0.6,0.3,0.7c0.2,0.2,0.6,0.3,1.1,0.3c0.7,0,1.2-0.1,1.5-0.3c0.2-0.1,0.4-0.3,0.5-0.6
		c0.1-0.2,0.1-0.6,0.1-1.2v-1.4c-0.8,1-1.7,1.6-2.9,1.6c-1.3,0-2.3-0.6-3.1-1.7c-0.6-0.9-0.9-2-0.9-3.2c0-1.6,0.4-2.9,1.2-3.7
		s1.8-1.3,2.9-1.3c1.2,0,2.2,0.5,3,1.6v-1.4h2.4v8.7c0,1.1-0.1,2-0.3,2.6c-0.2,0.6-0.5,1-0.8,1.3s-0.8,0.6-1.4,0.8s-1.3,0.3-2.2,0.3
		c-1.6,0-2.8-0.3-3.5-0.8c-0.7-0.6-1-1.3-1-2.1C60.2,34,60.2,33.9,60.2,33.8z M62.5,28.1c0,1,0.2,1.8,0.6,2.3
		c0.4,0.5,0.9,0.7,1.5,0.7c0.6,0,1.2-0.2,1.6-0.7s0.6-1.2,0.6-2.2c0-1-0.2-1.7-0.6-2.2c-0.4-0.5-0.9-0.7-1.6-0.7
		c-0.6,0-1.1,0.2-1.5,0.7C62.7,26.4,62.5,27.1,62.5,28.1z"/>
	<path d="M71.8,22.2v-2.4h2.6v2.4H71.8z M71.8,33.2v-9.7h2.6v9.7H71.8z"/>
	<path d="M85.8,33.2h-2.6v-4.9c0-1-0.1-1.7-0.2-2c-0.1-0.3-0.3-0.5-0.5-0.7c-0.2-0.2-0.5-0.3-0.9-0.3c-0.4,0-0.8,0.1-1.2,0.4
		c-0.4,0.2-0.6,0.6-0.7,1c-0.1,0.4-0.2,1.1-0.2,2.2v4.4H77v-9.7h2.4v1.4c0.8-1.1,1.9-1.6,3.2-1.6c0.6,0,1.1,0.1,1.6,0.3
		c0.5,0.2,0.8,0.5,1.1,0.8s0.4,0.7,0.5,1.1c0.1,0.4,0.1,1,0.1,1.7V33.2z"/>
	<path d="M88.2,33.8l2.9,0.4c0,0.3,0.2,0.6,0.3,0.7c0.2,0.2,0.6,0.3,1.1,0.3c0.7,0,1.2-0.1,1.5-0.3c0.2-0.1,0.4-0.3,0.5-0.6
		c0.1-0.2,0.1-0.6,0.1-1.2v-1.4c-0.8,1-1.7,1.6-2.9,1.6c-1.3,0-2.3-0.6-3.1-1.7c-0.6-0.9-0.9-2-0.9-3.2c0-1.6,0.4-2.9,1.2-3.7
		s1.8-1.3,2.9-1.3c1.2,0,2.2,0.5,3,1.6v-1.4h2.4v8.7c0,1.1-0.1,2-0.3,2.6c-0.2,0.6-0.5,1-0.8,1.3c-0.3,0.3-0.8,0.6-1.4,0.8
		s-1.3,0.3-2.2,0.3c-1.6,0-2.8-0.3-3.5-0.8c-0.7-0.6-1-1.3-1-2.1C88.2,34,88.2,33.9,88.2,33.8z M90.5,28.1c0,1,0.2,1.8,0.6,2.3
		s0.9,0.7,1.5,0.7c0.6,0,1.2-0.2,1.6-0.7c0.4-0.5,0.6-1.2,0.6-2.2c0-1-0.2-1.7-0.6-2.2s-0.9-0.7-1.6-0.7c-0.6,0-1.1,0.2-1.5,0.7
		S90.5,27.1,90.5,28.1z"/>
</g>
</svg>
