<?xml version="1.0" encoding="utf-8"?>
<!-- Generator: Adobe Illustrator 22.1.0, SVG Export Plug-In . SVG Version: 6.00 Build 0)  -->
<svg version="1.1" id="Capa_1" xmlns="http://www.w3.org/2000/svg" xmlns:xlink="http://www.w3.org/1999/xlink" x="0px" y="0px"
	 viewBox="0 0 512 360" style="enable-background:new 0 0 512 360;" xml:space="preserve">
<style type="text/css">
	.st0{fill:#FC313C;}
</style>
<g>
	<g>
		<path class="st0" d="M492,160H20c-11,0-20,9-20,20s9,20,20,20h472c11,0,20-9,20-20S503,160,492,160z"/>
	</g>
</g>
<g>
	<g>
		<path class="st0" d="M492,0H20C9,0,0,9,0,20s9,20,20,20h472c11,0,20-9,20-20S503,0,492,0z"/>
	</g>
</g>
<g>
	<g>
		<path class="st0" d="M492,320H20c-11,0-20,9-20,20s9,20,20,20h472c11,0,20-9,20-20S503,320,492,320z"/>
	</g>
</g>
</svg>
