<?xml version="1.0" encoding="utf-8"?>
<!-- Generator: Adobe Illustrator 22.1.0, SVG Export Plug-In . SVG Version: 6.00 Build 0)  -->
<svg version="1.1" id="Capa_1" xmlns="http://www.w3.org/2000/svg" xmlns:xlink="http://www.w3.org/1999/xlink" x="0px" y="0px"
	 viewBox="0 0 512 443.7" style="enable-background:new 0 0 512 443.7;" xml:space="preserve">
<style type="text/css">
	.st0{fill:#FFFFFF;}
</style>
<path class="st0" d="M395,12.8C390.4,4.9,381.9,0,372.8,0H139.2c-9.1,0-17.6,4.9-22.1,12.8L3.4,209c-4.6,7.9-4.6,17.7,0,25.6
	L117,430.9c4.6,7.9,13,12.8,22.1,12.8h233.6c9.1,0,17.6-4.9,22.2-12.8l113.6-196.2c4.6-7.9,4.6-17.7,0-25.6L395,12.8z M493.8,226.1
	L380.2,422.4c-1.5,2.6-4.3,4.2-7.4,4.3H139.2c-3,0-5.9-1.6-7.4-4.3L18.2,226.1c-1.5-2.6-1.5-5.9,0-8.5L131.8,21.3
	c1.5-2.6,4.3-4.3,7.4-4.3h233.6c3,0,5.9,1.6,7.4,4.3l113.6,196.2C495.3,220.2,495.3,223.5,493.8,226.1z"/>
<path class="st0" d="M129.9,75.7c4.1,2.4,9.3,1,11.7-3.1L154,51.2h33.7c4.7,0,8.5-3.8,8.5-8.5s-3.8-8.5-8.5-8.5H149
	c-3,0-5.9,1.6-7.4,4.2L126.8,64C124.4,68.1,125.8,73.3,129.9,75.7z"/>
<path class="st0" d="M454.3,183.4c-1.5-2.6-4.4-4.3-7.4-4.2c-3,0-5.9,1.6-7.4,4.3c-1.5,2.6-1.5,5.9,0,8.5l17.3,29.8l-17.3,29.8
	c-2.4,4.1-1,9.3,3.1,11.7c4.1,2.4,9.3,1,11.7-3.1l19.8-34.1c1.5-2.7,1.5-5.9,0-8.6L454.3,183.4z"/>
<path class="st0" d="M187.7,392.5H154l-12.4-21.3c-1.5-2.6-4.4-4.3-7.4-4.2c-3,0-5.9,1.6-7.4,4.3c-1.5,2.6-1.5,5.9,0,8.5l14.8,25.6
	c1.5,2.6,4.3,4.2,7.4,4.2h38.7c4.7,0,8.5-3.8,8.5-8.5C196.2,396.3,192.4,392.5,187.7,392.5z"/>
<path class="st0" d="M69.4,180.3c-4.1-2.4-9.3-1-11.7,3.1l-19.8,34.1c-1.5,2.6-1.5,5.9,0,8.6l19.8,34.1c1.5,2.6,4.3,4.3,7.4,4.2
	c1.5,0,3-0.4,4.3-1.2c4.1-2.4,5.5-7.6,3.1-11.7l-17.3-29.8L72.5,192C74.8,187.9,73.4,182.7,69.4,180.3z"/>
<path class="st0" d="M382.1,368.1c-4.1-2.4-9.3-1-11.7,3.1L358,392.5h-33.8c-4.7,0-8.5,3.8-8.5,8.5s3.8,8.5,8.5,8.5h38.7
	c3,0,5.9-1.6,7.4-4.2l14.8-25.6c1.1-2,1.4-4.3,0.9-6.5C385.5,371.1,384,369.2,382.1,368.1z"/>
<path class="st0" d="M324.2,51.2H358l12.4,21.3c1.5,2.6,4.4,4.3,7.4,4.2c3.1,0,5.9-1.6,7.4-4.3c1.5-2.6,1.5-5.9,0-8.5l-14.8-25.6
	c-1.5-2.6-4.3-4.2-7.4-4.2h-38.7c-4.7,0-8.5,3.8-8.5,8.5C315.7,47.4,319.5,51.2,324.2,51.2z"/>
<path class="st0" d="M255.9,76.8c-80.1,0-145.1,64.9-145.1,145.1S175.7,367,255.9,367S401,302,401,221.9
	C400.9,141.8,336,76.9,255.9,76.8z M255.9,349.8c-70.7,0-128-57.3-128-128s57.3-128,128-128s128,57.3,128,128
	S326.6,349.8,255.9,349.8z"/>
<path class="st0" d="M255.9,110.9c-61.3,0-110.9,49.7-110.9,110.9c0,61.3,49.7,110.9,110.9,110.9S366.8,283,366.8,221.8
	S317.2,111,255.9,110.9z M255.9,315.7c-51.8,0-93.9-42-93.9-93.9c0-51.8,42-93.9,93.9-93.9s93.9,42,93.9,93.9
	C349.7,273.7,307.8,315.6,255.9,315.7z"/>
</svg>
