<?xml version="1.0" encoding="utf-8"?>
<!-- Generator: Adobe Illustrator 22.1.0, SVG Export Plug-In . SVG Version: 6.00 Build 0)  -->
<svg version="1.1" id="Layer_1" xmlns="http://www.w3.org/2000/svg" xmlns:xlink="http://www.w3.org/1999/xlink" x="0px" y="0px"
	 viewBox="0 0 289 492" style="enable-background:new 0 0 289 492;" xml:space="preserve">
<style type="text/css">
	.st0{fill:#FFFFFF;}
</style>
<g>
	<g>
		<path class="st0" d="M7.8,265.2l218.9,218.9c5.1,5.1,11.8,7.9,19,7.9s14-2.8,19-7.9L281,468c10.5-10.5,10.5-27.6,0-38.1
			L97.1,246.1L281.2,62c5.1-5.1,7.9-11.8,7.9-19c0-7.2-2.8-14-7.9-19L265.1,7.9C260,2.8,253.2,0,246,0s-14,2.8-19,7.9L7.8,227
			C2.8,232.1,0,238.9,0,246.1C0,253.3,2.8,260.1,7.8,265.2z"/>
	</g>
</g>
</svg>
