<?xml version="1.0" encoding="utf-8"?>
<!-- Generator: Adobe Illustrator 22.1.0, SVG Export Plug-In . SVG Version: 6.00 Build 0)  -->
<svg version="1.1" id="Capa_1" xmlns="http://www.w3.org/2000/svg" xmlns:xlink="http://www.w3.org/1999/xlink" x="0px" y="0px"
	 viewBox="0 0 415 512" style="enable-background:new 0 0 415 512;" xml:space="preserve">
<style type="text/css">
	.st0{fill:#FC313C;}
</style>
<g>
	<g>
		<path class="st0" d="M247.5,232c-5.5,0-10,4.5-10,10s4.5,10,10,10s10-4.5,10-10S253,232,247.5,232z"/>
	</g>
</g>
<g>
	<g>
		<path class="st0" d="M207.5,172c-5.5,0-10,4.5-10,10s4.5,10,10,10s10-4.5,10-10S213,172,207.5,172z"/>
	</g>
</g>
<g>
	<g>
		<path class="st0" d="M87.5,432c-5.5,0-10,4.5-10,10s4.5,10,10,10s10-4.5,10-10S93,432,87.5,432z"/>
	</g>
</g>
<g>
	<g>
		<path class="st0" d="M405.9,407.7L277.5,179.4V58.3c11.6-4.1,20-15.2,20-28.3c0-16.5-13.5-30-30-30h-120c-16.5,0-30,13.5-30,30
			c0,13,8.4,24.2,20,28.3v121.1L9.1,407.7c-12.3,21.9-12.1,48,0.6,69.7C22.4,499,45,512,70.1,512h274.8c25.1,0,47.7-13,60.4-34.7
			C418,455.6,418.3,429.6,405.9,407.7z M156.2,186.9c0.8-1.5,1.3-3.2,1.3-4.9V60h10c5.5,0,10-4.5,10-10s-4.5-10-10-10h-20
			c-5.5,0-10-4.5-10-10s4.5-10,10-10h120c5.5,0,10,4.5,10,10s-4.5,10-10,10h-20c-5.5,0-10,4.5-10,10s4.5,10,10,10h10v122
			c0,1.7,0.4,3.4,1.3,4.9l58.9,104.8c-36-2.9-71.9,4.4-104.8,21.4c-42.4,21.9-89.5,25.8-134,11.2L156.2,186.9z M388.1,467.2
			c-9.1,15.5-25.2,24.8-43.2,24.8H70.1c-18,0-34.1-9.3-43.2-24.8s-9.2-34.1-0.4-49.8L68.9,342c20.6,7.2,41.8,10.8,63.4,10.8
			c3.2,0,6.4-0.1,9.6-0.2c27.9-1.4,54.9-8.7,80.1-21.8c33.8-17.5,71-23.5,107.8-17.6l58.6,104.2
			C397.3,433.1,397.1,451.7,388.1,467.2z"/>
	</g>
</g>
<g>
	<g>
		<path class="st0" d="M167.5,232c-16.5,0-30,13.5-30,30s13.5,30,30,30s30-13.5,30-30S184.1,232,167.5,232z M167.5,272
			c-5.5,0-10-4.5-10-10s4.5-10,10-10s10,4.5,10,10S173,272,167.5,272z"/>
	</g>
</g>
<g>
	<g>
		<path class="st0" d="M327.5,432h-200c-5.5,0-10,4.5-10,10s4.5,10,10,10h200c5.5,0,10-4.5,10-10S333,432,327.5,432z"/>
	</g>
</g>
</svg>
