<?xml version="1.0" encoding="utf-8"?>
<!-- Generator: Adobe Illustrator 22.1.0, SVG Export Plug-In . SVG Version: 6.00 Build 0)  -->
<svg version="1.1" id="Capa_1" xmlns="http://www.w3.org/2000/svg" xmlns:xlink="http://www.w3.org/1999/xlink" x="0px" y="0px"
	 viewBox="0 0 487.9 406" style="enable-background:new 0 0 487.9 406;" xml:space="preserve">
<style type="text/css">
	.st0{fill:#FC313C;}
</style>
<path class="st0" d="M194.8,124.7c-7.1-16.2-10.8-33.8-10.7-51.5V40.6c3.7,0,6.8-3,6.8-6.8V6.8c0-3.7-3-6.8-6.8-6.8h-54.1
	c-3.7,0-6.8,3-6.8,6.8v27.1c0,3.7,3,6.8,6.8,6.8v32.6c0,17.8-3.6,35.3-10.7,51.5l-19,43.4c-11.7,26.6-17.6,55.2-17.6,84.1v147
	c0,3.7,3,6.8,6.8,6.8h135.3c3.7,0,6.8-3,6.8-6.8v-147c0-28.9-5.9-57.6-17.6-84.1L194.8,124.7z M136.7,13.5h40.6v13.5h-40.6V13.5z
	 M217.9,392.4H96.1V252.2c0-27.1,5.6-53.9,16.5-78.6l19-43.4c7.8-18,11.8-37.4,11.8-57V40.6h27.1v32.6c0,19.6,4.1,39,11.9,56.9
	l19,43.4c10.9,24.8,16.5,51.6,16.5,78.6L217.9,392.4L217.9,392.4z"/>
<path class="st0" d="M171,171.5l5.7,12.9c2.9,6.7,5.4,13.5,7.4,20.5c0.8,2.9,3.5,4.9,6.5,4.9c0.7,0,1.3-0.1,1.9-0.3
	c3.6-1,5.7-4.8,4.6-8.4c-2.2-7.5-4.9-14.9-8-22.1l-5.7-12.9c-0.9-2.3-3-3.9-5.4-4.2c-2.5-0.3-4.9,0.8-6.3,2.8
	C170.2,166.7,169.9,169.3,171,171.5L171,171.5z"/>
<path class="st0" d="M162.3,151.5c1.1,2.5,3.6,4.1,6.2,4.1c0.9,0,1.9-0.2,2.7-0.6c3.4-1.5,5-5.5,3.5-8.9l-4.7-10.6
	c-1.6-3.3-5.5-4.7-8.8-3.3c-3.4,1.4-4.9,5.3-3.6,8.7L162.3,151.5z"/>
<path class="st0" d="M116.4,236.8c-3.7,0-6.8,3-6.8,6.8v115c0,3.7,3,6.8,6.8,6.8h81.2c3.7,0,6.8-3,6.8-6.8v-115c0-3.7-3-6.8-6.8-6.8
	H116.4z M190.8,351.8h-67.7V250.3h67.7V351.8z"/>
<path class="st0" d="M385.7,389.7c-13.4-10-29.3-16-46-17.3V277c38.3-3.6,67.6-35.6,67.6-74.1c0-0.3,0-0.7-0.1-0.9l-3.6-24.9V177
	l-10-69.8c-0.5-3.3-3.3-5.8-6.7-5.8H278.8c-3.4,0-6.3,2.5-6.7,5.8l-13.5,94.7c-0.1,0.3-0.1,0.7-0.1,0.9
	c0.1,38.5,29.3,70.5,67.7,74.1v95.3c-16.7,1.4-32.6,7.4-46,17.3l-5.4,4.1c-2.3,1.8-3.3,4.8-2.4,7.5c0.9,2.7,3.5,4.7,6.4,4.7H387
	c2.9,0,5.5-1.9,6.4-4.7c0.9-2.8,0-5.8-2.4-7.5L385.7,389.7z M284.6,115h96.5l8.1,56.8l-13,1.4c-14.8,1.7-29.8,0.4-44.1-3.6l-0.8-0.3
	c-16.7-4.7-34-6-51.2-3.9l-2.8,0.3L284.6,115z M272,203.5l3.4-23.7l6.4-0.8c15.3-1.9,30.9-0.8,45.7,3.4l0.8,0.3
	c16.1,4.6,32.8,6,49.4,4.1l13.4-1.5l2.6,18.2c0,33.7-27.2,60.9-60.9,60.9S272,237,272,203.5z M301.9,392.4c19.7-8.8,42.2-8.8,61.9,0
	H301.9z"/>
</svg>
